<?xml version="1.0" encoding="iso-8859-1"?>
<!-- Generator: Adobe Illustrator 19.0.0, SVG Export Plug-In . SVG Version: 6.00 Build 0)  -->
<svg version="1.1" id="Capa_1" xmlns="http://www.w3.org/2000/svg" xmlns:xlink="http://www.w3.org/1999/xlink" x="0px" y="0px"
	 viewBox="0 0 512 512" style="enable-background:new 0 0 512 512;" xml:space="preserve">
<g>
	<g>
		<path d="M230,56.617c-36.497,0-66.189,29.692-66.189,66.189c0,36.496,29.692,66.188,66.189,66.188s66.189-29.692,66.189-66.188
			C296.189,86.309,266.497,56.617,230,56.617z M230,158.993c-19.955,0-36.189-16.234-36.189-36.188S210.045,86.616,230,86.616
			s36.189,16.234,36.189,36.189C266.189,142.759,249.955,158.993,230,158.993z"/>
	</g>
</g>
<g>
	<g>
		<path d="M122.768,163.812c-36.497,0-66.189,29.692-66.189,66.188c0,36.496,29.692,66.188,66.188,66.188
			c36.496,0,66.19-29.692,66.19-66.188C188.957,193.504,159.265,163.812,122.768,163.812z M122.768,266.188
			c-19.955,0-36.188-16.234-36.188-36.188c0-19.954,16.234-36.188,36.188-36.188c19.954,0,36.189,16.234,36.189,36.188
			C158.957,249.954,142.722,266.188,122.768,266.188z"/>
	</g>
</g>
<g>
	<g>
		<path d="M230,271.006c-36.497,0-66.189,29.692-66.189,66.188c0,36.496,29.692,66.188,66.189,66.188s66.189-29.692,66.189-66.188
			C296.189,300.698,266.497,271.006,230,271.006z M230,373.383c-19.955,0-36.189-16.235-36.189-36.189
			c0-19.954,16.234-36.188,36.189-36.188s36.189,16.234,36.189,36.188S249.955,373.383,230,373.383z"/>
	</g>
</g>
<g>
	<g>
		<path d="M337.232,163.812c-36.496,0-66.189,29.692-66.189,66.188c0,36.496,29.692,66.188,66.189,66.188S403.42,266.496,403.42,230
			C403.42,193.504,373.728,163.812,337.232,163.812z M337.232,266.188c-19.954,0-36.189-16.234-36.189-36.188
			s16.235-36.188,36.189-36.188c19.955,0,36.188,16.234,36.188,36.188C373.42,249.954,357.186,266.188,337.232,266.188z"/>
	</g>
</g>
<g>
	<g>
		<path d="M230,207.368c-12.48,0-22.632,10.153-22.632,22.632S217.52,252.631,230,252.631c12.48,0,22.632-10.152,22.632-22.631
			S242.48,207.368,230,207.368z"/>
	</g>
</g>
<g>
	<g>
		<path d="M445,430H343.769C413.581,390.142,460,315.479,460,230C460,102.878,357.132,0,230,0C102.878,0,0,102.868,0,230
			c0,127.122,102.868,230,230,230h215c20.402,0,37,16.598,37,37c0,8.284,6.716,15,15,15s15-6.716,15-15
			C512,460.056,481.944,430,445,430z M30,230c0-110.28,89.72-200,200-200s200,89.72,200,200s-89.72,200-200,200S30,340.28,30,230z"
			/>
	</g>
</g>
<g>
</g>
<g>
</g>
<g>
</g>
<g>
</g>
<g>
</g>
<g>
</g>
<g>
</g>
<g>
</g>
<g>
</g>
<g>
</g>
<g>
</g>
<g>
</g>
<g>
</g>
<g>
</g>
<g>
</g>
</svg>
