<svg id="Layer_1" height="512" viewBox="0 0 48 48" width="512" xmlns="http://www.w3.org/2000/svg" data-name="Layer 1"><path d="m39 43h-30a5.006 5.006 0 0 1 -5-5v-28a5.006 5.006 0 0 1 5-5h30a5.006 5.006 0 0 1 5 5v28a5.006 5.006 0 0 1 -5 5zm-30-36a3 3 0 0 0 -3 3v28a3 3 0 0 0 3 3h30a3 3 0 0 0 3-3v-28a3 3 0 0 0 -3-3z"/><path d="m21.688 35a3.244 3.244 0 0 1 -1.562-.406 3.2 3.2 0 0 1 -1.68-2.84v-7.511a3.239 3.239 0 0 1 4.978-2.733l5.905 3.758a3.239 3.239 0 0 1 0 5.464l-5.905 3.758a3.22 3.22 0 0 1 -1.736.51zm0-12a1.236 1.236 0 0 0 -.6.156 1.223 1.223 0 0 0 -.643 1.086v7.514a1.24 1.24 0 0 0 1.9 1.046l5.9-3.758a1.239 1.239 0 0 0 0-2.09l-5.9-3.758a1.242 1.242 0 0 0 -.658-.196z"/><path d="m43 16h-38a1 1 0 0 1 0-2h38a1 1 0 0 1 0 2z"/><path d="m33 16h-18a1 1 0 0 1 -1-1v-9a1 1 0 0 1 1-1h18a1 1 0 0 1 1 1v9a1 1 0 0 1 -1 1zm-17-2h16v-7h-16z"/><path d="m24 16a1 1 0 0 1 -1-1v-9a1 1 0 0 1 2 0v9a1 1 0 0 1 -1 1z"/></svg>