<svg id="Capa_1" enable-background="new 0 0 512 512" height="512" viewBox="0 0 512 512" width="512" xmlns="http://www.w3.org/2000/svg"><path d="m477 .022h-59.555c-.149-.004-.295-.022-.445-.022h-322c-.533 0-1.058.03-1.576.084h-58.424c-19.299 0-35 15.701-35 35v441.916c0 19.299 15.701 35 35 35h60 322c.411 0 .815-.029 1.218-.062h58.782c19.299 0 35-15.701 35-35v-441.916c0-19.298-15.701-35-35-35zm-45 110.311h50v50.334h-50zm0 80.334h50v50.333h-50zm50 80.333v50.333h-50v-50.333zm-50 80.333h50v50.334h-50zm50-316.311v45.311h-50v-24.259-26.052h45c2.757 0 5 2.244 5 5zm-80 205.978h-292v-211h292zm-322-80.333h-50v-50.334h50zm-50 190.666h50v50.334h-50zm50-30h-50v-50.333h50zm-50-80.333v-50.333h50v50.333zm5-210.916h45v25.99 24.259h-50v-45.249c0-2.757 2.243-5 5-5zm-5 446.916v-45.333h50v24.355 25.978h-45c-2.757 0-5-2.243-5-5zm80-206h292v211h-292zm367 210.938h-45v-25.916-24.355h50v45.271c0 2.757-2.243 5-5 5z"/></svg>